<?xml version="1.0" encoding="UTF-8"?>
<!DOCTYPE svg PUBLIC "-//W3C//DTD SVG 1.1//EN" "http://www.w3.org/Graphics/SVG/1.1/DTD/svg11.dtd">
<svg xmlns="http://www.w3.org/2000/svg" version="1.1" width="5000px" height="8310px" style="shape-rendering:geometricPrecision; text-rendering:geometricPrecision; image-rendering:optimizeQuality; fill-rule:evenodd; clip-rule:evenodd" xmlns:xlink="http://www.w3.org/1999/xlink">
<g><path style="opacity:0.996" fill="#fe171c" d="M 4289.5,-0.5 C 4290.17,-0.5 4290.83,-0.5 4291.5,-0.5C 3944.35,319.818 3611.85,654.484 3294,1003.5C 3122.25,1192.55 2957.25,1386.88 2799,1586.5C 2717.97,1690.02 2639.47,1795.35 2563.5,1902.5C 2393.66,1804.75 2224,1706.75 2054.5,1608.5C 2366.14,1383.68 2677.8,1158.84 2989.5,934C 3423.01,622.637 3856.35,311.137 4289.5,-0.5 Z"/></g>
<g><path style="opacity:0.998" fill="#f6151a" d="M 2054.5,1608.5 C 2224,1706.75 2393.66,1804.75 2563.5,1902.5C 2531.41,1948.58 2499.74,1994.92 2468.5,2041.5C 2281.2,1933.18 2093.87,1824.85 1906.5,1716.5C 1955.53,1680.15 2004.86,1644.15 2054.5,1608.5 Z"/></g>
<g><path style="opacity:0.998" fill="#f21419" d="M 1906.5,1716.5 C 2093.87,1824.85 2281.2,1933.18 2468.5,2041.5C 2460.15,2054.2 2451.82,2066.87 2443.5,2079.5C 2250.97,1968.4 2058.63,1857.07 1866.5,1745.5C 1879.44,1735.36 1892.77,1725.69 1906.5,1716.5 Z"/></g>
<g><path style="opacity:0.999" fill="#ef1317" d="M 1866.5,1745.5 C 2058.63,1857.07 2250.97,1968.4 2443.5,2079.5C 2422.07,2114.04 2400.4,2148.37 2378.5,2182.5C 2174.17,2064 1969.5,1946 1764.5,1828.5C 1773.17,1819.5 1781.83,1810.5 1790.5,1801.5C 1815.44,1782.36 1840.77,1763.69 1866.5,1745.5 Z"/></g>
<g><path style="opacity:0.999" fill="#fe171c" d="M 1790.5,1801.5 C 1781.83,1810.5 1773.17,1819.5 1764.5,1828.5C 1760.5,1831.83 1756.83,1835.5 1753.5,1839.5C 1735.87,1856.63 1718.37,1873.96 1701,1891.5C 1681.6,1911.07 1662.76,1931.07 1644.5,1951.5C 1599.38,1998.28 1555.72,2046.28 1513.5,2095.5C 1511.83,2097.5 1510.17,2099.5 1508.5,2101.5C 1472.99,2142 1438.99,2183.67 1406.5,2226.5C 1396.48,2238.52 1386.82,2250.86 1377.5,2263.5C 1353.1,2295.97 1329.43,2328.97 1306.5,2362.5C 1276.75,2406.32 1248.75,2451.32 1222.5,2497.5C 1221.17,2499.83 1219.83,2502.17 1218.5,2504.5C 1185.9,2562.7 1157.9,2623.03 1134.5,2685.5C 1126.5,2706.83 1119.5,2728.5 1113.5,2750.5C 1104.41,2781.29 1097.74,2812.63 1093.5,2844.5C 1085.98,2890.21 1084.65,2936.21 1089.5,2982.5C 1091.08,3002.92 1094.41,3022.92 1099.5,3042.5C 1116.02,3112.2 1146.85,3174.53 1192,3229.5C 1243.58,3289.32 1303.41,3338.82 1371.5,3378C 1459.92,3427.71 1552.92,3466.71 1650.5,3495C 1762.59,3527.98 1876.92,3548.82 1993.5,3557.5C 2026.74,3560.55 2060.07,3562.22 2093.5,3562.5C 2170.63,3564.52 2247.63,3562.19 2324.5,3555.5C 2340.07,3554.66 2355.41,3553 2370.5,3550.5C 2469.03,3540.97 2567.03,3527.47 2664.5,3510C 2817.72,3481.82 2970.72,3452.49 3123.5,3422C 3233.64,3400.75 3344.3,3382.75 3455.5,3368C 3622.81,3345.3 3790.81,3337.3 3959.5,3344C 4054,3348.78 4148,3358.45 4241.5,3373C 4406.88,3405.03 4552.21,3476.36 4677.5,3587C 4851.51,3744.48 4956.35,3939.98 4992,4173.5C 4995.26,4199.25 4997.76,4224.91 4999.5,4250.5C 4999.5,4278.83 4999.5,4307.17 4999.5,4335.5C 4991.56,4464.9 4959.06,4587.9 4902,4704.5C 4864.72,4779.77 4823.38,4852.43 4778,4922.5C 4697.53,5044.1 4611.19,5161.43 4519,5274.5C 4303.39,5535.82 4072.23,5783.99 3825.5,6019C 3820.29,6023.71 3814.96,6028.21 3809.5,6032.5C 3817.14,6023.19 3824.81,6013.85 3832.5,6004.5C 3835.17,6001.17 3837.83,5997.83 3840.5,5994.5C 3867.38,5961.73 3892.05,5927.39 3914.5,5891.5C 3943.53,5848.13 3969.53,5802.8 3992.5,5755.5C 3993.5,5753.5 3994.5,5751.5 3995.5,5749.5C 4015.04,5709.76 4032.37,5669.1 4047.5,5627.5C 4051.83,5615.5 4056.17,5603.5 4060.5,5591.5C 4070.75,5558.52 4079.75,5525.18 4087.5,5491.5C 4098.08,5445.52 4105.08,5398.86 4108.5,5351.5C 4108.7,5348.48 4109.04,5345.48 4109.5,5342.5C 4113.87,5275.7 4109.2,5209.7 4095.5,5144.5C 4091,5119.14 4084.33,5094.48 4075.5,5070.5C 4062.16,5029.15 4044.49,4989.82 4022.5,4952.5C 3949.1,4828.6 3847.43,4735.43 3717.5,4673C 3636.4,4637.22 3551.74,4614.56 3463.5,4605C 3446.57,4602.59 3429.57,4601.09 3412.5,4600.5C 3366.73,4596.82 3320.73,4595.15 3274.5,4595.5C 3232.12,4595.98 3189.78,4597.65 3147.5,4600.5C 3055.02,4606.87 2963.02,4616.54 2871.5,4629.5C 2867.8,4629.55 2864.14,4629.89 2860.5,4630.5C 2813.56,4636.59 2766.9,4643.59 2720.5,4651.5C 2564.04,4676.36 2408.37,4705.52 2253.5,4739C 2140.5,4763.23 2027.5,4787.4 1914.5,4811.5C 1512.25,4115.33 1110.25,3419 708.5,2722.5C 717.794,2712.04 727.294,2701.7 737,2691.5C 887.121,2537.69 1043.62,2391.52 1206.5,2253C 1384.86,2101.36 1569.19,1957.7 1759.5,1822C 1769.73,1814.92 1780.07,1808.09 1790.5,1801.5 Z"/></g>
<g><path style="opacity:0.999" fill="#ec1316" d="M 1764.5,1828.5 C 1969.5,1946 2174.17,2064 2378.5,2182.5C 2376.58,2187.34 2373.92,2191.68 2370.5,2195.5C 2165.33,2076.08 1959.66,1957.41 1753.5,1839.5C 1756.83,1835.5 1760.5,1831.83 1764.5,1828.5 Z"/></g>
<g><path style="opacity:0.999" fill="#ea1115" d="M 1753.5,1839.5 C 1959.66,1957.41 2165.33,2076.08 2370.5,2195.5C 2344.76,2239.25 2319.43,2283.25 2294.5,2327.5C 2078.2,2201.68 1861.53,2076.34 1644.5,1951.5C 1662.76,1931.07 1681.6,1911.07 1701,1891.5C 1718.37,1873.96 1735.87,1856.63 1753.5,1839.5 Z"/></g>
<g><path style="opacity:0.999" fill="#e30f13" d="M 1644.5,1951.5 C 1861.53,2076.34 2078.2,2201.68 2294.5,2327.5C 2264.2,2383.09 2235.2,2439.42 2207.5,2496.5C 1976.53,2362.34 1745.2,2228.68 1513.5,2095.5C 1555.72,2046.28 1599.38,1998.28 1644.5,1951.5 Z"/></g>
<g><path style="opacity:0.999" fill="#e00f13" d="M 1513.5,2095.5 C 1745.2,2228.68 1976.53,2362.34 2207.5,2496.5C 2207.07,2499.16 2206.07,2501.49 2204.5,2503.5C 1972.83,2369 1740.83,2235 1508.5,2101.5C 1510.17,2099.5 1511.83,2097.5 1513.5,2095.5 Z"/></g>
<g><path style="opacity:0.999" fill="#dd0d11" d="M 1508.5,2101.5 C 1740.83,2235 1972.83,2369 2204.5,2503.5C 2182.12,2552 2161.12,2601 2141.5,2650.5C 1896.34,2509.42 1651.34,2368.09 1406.5,2226.5C 1438.99,2183.67 1472.99,2142 1508.5,2101.5 Z"/></g>
<g><path style="opacity:0.999" fill="#d90d10" d="M 1406.5,2226.5 C 1651.34,2368.09 1896.34,2509.42 2141.5,2650.5C 2136.74,2665.46 2131.4,2680.13 2125.5,2694.5C 1877.9,2551.36 1630.23,2408.19 1382.5,2265C 1380.98,2263.99 1379.31,2263.49 1377.5,2263.5C 1386.82,2250.86 1396.48,2238.52 1406.5,2226.5 Z"/></g>
<g><path style="opacity:0.999" fill="#d60b0f" d="M 1377.5,2263.5 C 1379.31,2263.49 1380.98,2263.99 1382.5,2265C 1630.23,2408.19 1877.9,2551.36 2125.5,2694.5C 2111.89,2733.68 2099.89,2773.34 2089.5,2813.5C 1828.64,2662.9 1567.64,2512.57 1306.5,2362.5C 1329.43,2328.97 1353.1,2295.97 1377.5,2263.5 Z"/></g>
<g><path style="opacity:1" fill="#d10a0d" d="M 1306.5,2362.5 C 1567.64,2512.57 1828.64,2662.9 2089.5,2813.5C 2074.43,2867.92 2064.1,2923.25 2058.5,2979.5C 1779.53,2819.35 1500.87,2658.68 1222.5,2497.5C 1248.75,2451.32 1276.75,2406.32 1306.5,2362.5 Z"/></g>
<g><path style="opacity:1" fill="#cf090c" d="M 1222.5,2497.5 C 1500.87,2658.68 1779.53,2819.35 2058.5,2979.5C 2057.6,2982.39 2057.26,2985.39 2057.5,2988.5C 1777.97,2826.9 1498.3,2665.57 1218.5,2504.5C 1219.83,2502.17 1221.17,2499.83 1222.5,2497.5 Z"/></g>
<g><path style="opacity:1" fill="#ca080b" d="M 1218.5,2504.5 C 1498.3,2665.57 1777.97,2826.9 2057.5,2988.5C 2048.86,3068.96 2054.86,3148.29 2075.5,3226.5C 1762.31,3045.98 1449.14,2865.32 1136,2684.5C 1135.62,2685.06 1135.12,2685.39 1134.5,2685.5C 1157.9,2623.03 1185.9,2562.7 1218.5,2504.5 Z"/></g>
<g><path style="opacity:0.999" fill="#c60709" d="M 2075.5,3226.5 C 2086.55,3262.94 2101.21,3297.94 2119.5,3331.5C 1784.17,3137.83 1448.83,2944.17 1113.5,2750.5C 1119.5,2728.5 1126.5,2706.83 1134.5,2685.5C 1135.12,2685.39 1135.62,2685.06 1136,2684.5C 1449.14,2865.32 1762.31,3045.98 2075.5,3226.5 Z"/></g>
<g><path style="opacity:1" fill="#f6151a" d="M 708.5,2722.5 C 1110.25,3419 1512.25,4115.33 1914.5,4811.5C 1844.89,4826.42 1775.22,4841.09 1705.5,4855.5C 1325.49,4196.81 945.488,3538.14 565.5,2879.5C 611.328,2825.66 658.994,2773.33 708.5,2722.5 Z"/></g>
<g><path style="opacity:0.998" fill="#c30608" d="M 1113.5,2750.5 C 1448.83,2944.17 1784.17,3137.83 2119.5,3331.5C 2161.69,3401.86 2217.36,3459.36 2286.5,3504C 2313.4,3521.29 2341.4,3536.79 2370.5,3550.5C 2355.41,3553 2340.07,3554.66 2324.5,3555.5C 1914.37,3318.26 1504.03,3081.26 1093.5,2844.5C 1097.74,2812.63 1104.41,2781.29 1113.5,2750.5 Z"/></g>
<g><path style="opacity:1" fill="#bf0407" d="M 1093.5,2844.5 C 1504.03,3081.26 1914.37,3318.26 2324.5,3555.5C 2247.63,3562.19 2170.63,3564.52 2093.5,3562.5C 1759.11,3368.8 1424.45,3175.47 1089.5,2982.5C 1084.65,2936.21 1085.98,2890.21 1093.5,2844.5 Z"/></g>
<g><path style="opacity:1" fill="#f21419" d="M 565.5,2879.5 C 945.488,3538.14 1325.49,4196.81 1705.5,4855.5C 1688.81,4858.71 1672.14,4862.04 1655.5,4865.5C 1281.08,4216.33 906.416,3567.33 531.5,2918.5C 542.116,2904.88 553.45,2891.88 565.5,2879.5 Z"/></g>
<g><path style="opacity:1" fill="#ef1317" d="M 531.5,2918.5 C 906.416,3567.33 1281.08,4216.33 1655.5,4865.5C 1602.27,4876.35 1548.94,4886.68 1495.5,4896.5C 1139.5,4279.83 783.5,3663.17 427.5,3046.5C 460.732,3002.72 495.399,2960.06 531.5,2918.5 Z"/></g>
<g><path style="opacity:1" fill="#bc0406" d="M 1089.5,2982.5 C 1424.45,3175.47 1759.11,3368.8 2093.5,3562.5C 2060.07,3562.22 2026.74,3560.55 1993.5,3557.5C 1696.06,3385.27 1398.39,3213.27 1100.5,3041.5C 1099.89,3041.62 1099.56,3041.96 1099.5,3042.5C 1094.41,3022.92 1091.08,3002.92 1089.5,2982.5 Z"/></g>
<g><path style="opacity:1" fill="#b90205" d="M 1993.5,3557.5 C 1876.92,3548.82 1762.59,3527.98 1650.5,3495C 1552.92,3466.71 1459.92,3427.71 1371.5,3378C 1303.41,3338.82 1243.58,3289.32 1192,3229.5C 1146.85,3174.53 1116.02,3112.2 1099.5,3042.5C 1099.56,3041.96 1099.89,3041.62 1100.5,3041.5C 1398.39,3213.27 1696.06,3385.27 1993.5,3557.5 Z"/></g>
<g><path style="opacity:1" fill="#ec1316" d="M 427.5,3046.5 C 783.5,3663.17 1139.5,4279.83 1495.5,4896.5C 1488.89,4897.96 1482.22,4899.29 1475.5,4900.5C 1121.83,4287.83 768.167,3675.17 414.5,3062.5C 418.365,3056.76 422.698,3051.43 427.5,3046.5 Z"/></g>
<g><path style="opacity:0.999" fill="#ea1115" d="M 414.5,3062.5 C 768.167,3675.17 1121.83,4287.83 1475.5,4900.5C 1411.41,4912.92 1347.08,4923.92 1282.5,4933.5C 954.335,4363.83 625.669,3794.5 296.5,3225.5C 334.132,3169.89 373.465,3115.56 414.5,3062.5 Z"/></g>
<g><path style="opacity:0.999" fill="#e40f13" d="M 296.5,3225.5 C 625.669,3794.5 954.335,4363.83 1282.5,4933.5C 1198,4946.12 1113,4953.45 1027.5,4955.5C 738.764,4454.36 449.764,3953.36 160.5,3452.5C 201.556,3374.02 246.89,3298.35 296.5,3225.5 Z"/></g>
<g><path style="opacity:0.999" fill="#df0f12" d="M 160.5,3452.5 C 449.764,3953.36 738.764,4454.36 1027.5,4955.5C 1023.83,4955.5 1020.17,4955.5 1016.5,4955.5C 729.764,4457.7 442.764,3960.03 155.5,3462.5C 156.659,3458.85 158.326,3455.52 160.5,3452.5 Z"/></g>
<g><path style="opacity:0.999" fill="#dd0d11" d="M 155.5,3462.5 C 442.764,3960.03 729.764,4457.7 1016.5,4955.5C 938.623,4956.46 861.289,4950.79 784.5,4938.5C 542.902,4520.3 301.569,4101.97 60.5,3683.5C 86.4171,3607.34 118.084,3533.67 155.5,3462.5 Z"/></g>
<g><path style="opacity:0.999" fill="#d90d10" d="M 60.5,3683.5 C 301.569,4101.97 542.902,4520.3 784.5,4938.5C 758.957,4934.52 733.624,4929.52 708.5,4923.5C 484.764,4535.03 260.764,4146.7 36.5,3758.5C 43.7261,3733.16 51.7261,3708.16 60.5,3683.5 Z"/></g>
<g><path style="opacity:0.999" fill="#d60b0f" d="M 36.5,3758.5 C 260.764,4146.7 484.764,4535.03 708.5,4923.5C 634.122,4905.49 563.122,4878.82 495.5,4843.5C 330.404,4556.97 165.071,4270.63 -0.5,3984.5C -0.5,3979.17 -0.5,3973.83 -0.5,3968.5C 3.19632,3896.99 15.5297,3826.99 36.5,3758.5 Z"/></g>
<g><path style="opacity:0.995" fill="#d20a0d" d="M -0.5,3984.5 C 165.071,4270.63 330.404,4556.97 495.5,4843.5C 389.444,4787.66 297.944,4713.33 221,4620.5C 86.9895,4456.03 13.1562,4267.36 -0.5,4054.5C -0.5,4031.17 -0.5,4007.83 -0.5,3984.5 Z"/></g>
<g><path style="opacity:1" fill="#c30608" d="M 3274.5,4595.5 C 3320.73,4595.15 3366.73,4596.82 3412.5,4600.5C 3614.89,4718.32 3818.05,4835.98 4022,4953.5C 4022.4,4953.27 4022.57,4952.94 4022.5,4952.5C 4044.49,4989.82 4062.16,5029.15 4075.5,5070.5C 3801.56,4913.2 3527.89,4755.36 3254.5,4597C 3261.35,4596.83 3268.01,4596.33 3274.5,4595.5 Z"/></g>
<g><path style="opacity:1" fill="#c60709" d="M 3274.5,4595.5 C 3268.01,4596.33 3261.35,4596.83 3254.5,4597C 3527.89,4755.36 3801.56,4913.2 4075.5,5070.5C 4084.33,5094.48 4091,5119.14 4095.5,5144.5C 4095.72,5145.68 4095.39,5146.68 4094.5,5147.5C 3778.61,4965.39 3462.94,4783.06 3147.5,4600.5C 3189.78,4597.65 3232.12,4595.98 3274.5,4595.5 Z"/></g>
<g><path style="opacity:1" fill="#cb080b" d="M 3147.5,4600.5 C 3462.94,4783.06 3778.61,4965.39 4094.5,5147.5C 4095.39,5146.68 4095.72,5145.68 4095.5,5144.5C 4109.2,5209.7 4113.87,5275.7 4109.5,5342.5C 4108.85,5342.8 4108.18,5343.14 4107.5,5343.5C 3695.2,5105.84 3283.2,4867.84 2871.5,4629.5C 2963.02,4616.54 3055.02,4606.87 3147.5,4600.5 Z"/></g>
<g><path style="opacity:1" fill="#c00407" d="M 3412.5,4600.5 C 3429.57,4601.09 3446.57,4602.59 3463.5,4605C 3551.74,4614.56 3636.4,4637.22 3717.5,4673C 3847.43,4735.43 3949.1,4828.6 4022.5,4952.5C 4022.57,4952.94 4022.4,4953.27 4022,4953.5C 3818.05,4835.98 3614.89,4718.32 3412.5,4600.5 Z"/></g>
<g><path style="opacity:1" fill="#cf090c" d="M 2871.5,4629.5 C 3283.2,4867.84 3695.2,5105.84 4107.5,5343.5C 4108.18,5343.14 4108.85,5342.8 4109.5,5342.5C 4109.04,5345.48 4108.7,5348.48 4108.5,5351.5C 3692.46,5111.15 3276.46,4870.82 2860.5,4630.5C 2864.14,4629.89 2867.8,4629.55 2871.5,4629.5 Z"/></g>
<g><path style="opacity:0.999" fill="#d10a0d" d="M 2860.5,4630.5 C 3276.46,4870.82 3692.46,5111.15 4108.5,5351.5C 4105.08,5398.86 4098.08,5445.52 4087.5,5491.5C 3691.33,5262.58 3295,5033.91 2898.5,4805.5C 2880.46,4762.97 2854.46,4726.14 2820.5,4695C 2798.15,4675.37 2772.49,4661.71 2743.5,4654C 2735.9,4652.46 2728.24,4651.63 2720.5,4651.5C 2766.9,4643.59 2813.56,4636.59 2860.5,4630.5 Z"/></g>
<g><path style="opacity:1" fill="#d60b0f" d="M 2898.5,4805.5 C 3295,5033.91 3691.33,5262.58 4087.5,5491.5C 4079.75,5525.18 4070.75,5558.52 4060.5,5591.5C 3684.5,5374.83 3308.5,5158.17 2932.5,4941.5C 2927.44,4894.59 2916.11,4849.26 2898.5,4805.5 Z"/></g>
<g><path style="opacity:1" fill="#d90d10" d="M 2932.5,4941.5 C 3308.5,5158.17 3684.5,5374.83 4060.5,5591.5C 4056.17,5603.5 4051.83,5615.5 4047.5,5627.5C 3676.83,5413.83 3306.17,5200.17 2935.5,4986.5C 2934.62,4971.49 2933.62,4956.49 2932.5,4941.5 Z"/></g>
<g><path style="opacity:1" fill="#dd0d11" d="M 2935.5,4986.5 C 3306.17,5200.17 3676.83,5413.83 4047.5,5627.5C 4032.37,5669.1 4015.04,5709.76 3995.5,5749.5C 3639.5,5544.5 3283.5,5339.5 2927.5,5134.5C 2934.01,5085.38 2936.67,5036.05 2935.5,4986.5 Z"/></g>
<g><path style="opacity:1" fill="#e00f13" d="M 2927.5,5134.5 C 3283.5,5339.5 3639.5,5544.5 3995.5,5749.5C 3994.5,5751.5 3993.5,5753.5 3992.5,5755.5C 3637.18,5550.53 3281.85,5345.53 2926.5,5140.5C 2926.33,5138.38 2926.66,5136.38 2927.5,5134.5 Z"/></g>
<g><path style="opacity:1" fill="#e30f13" d="M 2926.5,5140.5 C 3281.85,5345.53 3637.18,5550.53 3992.5,5755.5C 3969.53,5802.8 3943.53,5848.13 3914.5,5891.5C 3573.85,5695.19 3233.18,5498.86 2892.5,5302.5C 2907.03,5249.17 2918.37,5195.17 2926.5,5140.5 Z"/></g>
<g><path style="opacity:1" fill="#ea1115" d="M 2892.5,5302.5 C 3233.18,5498.86 3573.85,5695.19 3914.5,5891.5C 3892.05,5927.39 3867.38,5961.73 3840.5,5994.5C 3511.83,5804.83 3183.17,5615.17 2854.5,5425.5C 2868.38,5384.85 2881.05,5343.85 2892.5,5302.5 Z"/></g>
<g><path style="opacity:1" fill="#ed1317" d="M 2854.5,5425.5 C 3183.17,5615.17 3511.83,5804.83 3840.5,5994.5C 3837.83,5997.83 3835.17,6001.17 3832.5,6004.5C 3505.17,5815.5 3177.83,5626.5 2850.5,5437.5C 2851.26,5433.22 2852.59,5429.22 2854.5,5425.5 Z"/></g>
<g><path style="opacity:0.999" fill="#ef1317" d="M 2850.5,5437.5 C 3177.83,5626.5 3505.17,5815.5 3832.5,6004.5C 3824.81,6013.85 3817.14,6023.19 3809.5,6032.5C 3793.53,6048.14 3777.53,6063.81 3761.5,6079.5C 3445.63,5897.4 3129.97,5715.07 2814.5,5532.5C 2826.52,5500.77 2838.52,5469.1 2850.5,5437.5 Z"/></g>
<g><path style="opacity:0.999" fill="#f21419" d="M 2814.5,5532.5 C 3129.97,5715.07 3445.63,5897.4 3761.5,6079.5C 3752.19,6088.47 3742.86,6097.47 3733.5,6106.5C 3422.17,5926.83 3110.83,5747.17 2799.5,5567.5C 2804.26,5555.65 2809.26,5543.98 2814.5,5532.5 Z"/></g>
<g><path style="opacity:0.999" fill="#f6151a" d="M 2799.5,5567.5 C 3110.83,5747.17 3422.17,5926.83 3733.5,6106.5C 3698.83,6139.84 3663.83,6172.84 3628.5,6205.5C 3333.17,6035.17 3037.83,5864.83 2742.5,5694.5C 2762.33,5652.52 2781.33,5610.18 2799.5,5567.5 Z"/></g>
<g><path style="opacity:0.998" fill="#fe171c" d="M 2742.5,5694.5 C 3037.83,5864.83 3333.17,6035.17 3628.5,6205.5C 3534.22,6293.61 3438.56,6380.11 3341.5,6465C 3118.67,6657.53 2890.34,6842.86 2656.5,7021C 2279.94,7306.52 1892.61,7576.86 1494.5,7832C 1236.09,7998.23 973.091,8157.4 705.5,8309.5C 704.833,8309.5 704.167,8309.5 703.5,8309.5C 888.705,8117.14 1071.21,7922.47 1251,7725.5C 1454.65,7500.55 1652.32,7270.88 1844,7036.5C 1974.88,6874.63 2101.55,6709.63 2224,6541.5C 2331.79,6391.95 2434.12,6238.62 2531,6081.5C 2607.62,5956.29 2678.12,5827.29 2742.5,5694.5 Z"/></g>
</svg>
